<svg width="108" height="69" viewBox="0 0 108 69" fill="none" xmlns="http://www.w3.org/2000/svg">
<g style="mix-blend-mode:screen">
<path d="M107.5 35L103.5 44.5L105.5 54L106 62L108 65.5L106 68L96.5 62L86.5 58L75.5 54.5L62.5 53H53L39.5 54.5L27 58.5L17 63L7.5 69L3.5 65.5V61.5L1 58L0 55V52L2 46L11 38L23 31.5L35 26.5L24.5 23.5L17.5 18.5L15 13.5L17 8.5L20 6L25 2.5L31.5 0H39.5L47 2.5L46 4.5L41.5 4L35 3.5L28.5 6.5L23.5 12L25 16.5L34.5 20.5L46 24.5L55.5 22L65.5 21.5H73L80 22L84.5 23L94 43.5L98.5 38L101.5 31.5L100.5 27H96L92 31.5L92.8415 41L84.5 23L88.5 24.5L92.5 21.5L98 21H100.5L103.5 22L106 24L107.5 27.5V35Z" fill="#7E5A49"/>
</g>
</svg>
