<svg width="26" height="27" viewBox="0 0 26 27" fill="none" xmlns="http://www.w3.org/2000/svg">
<path d="M9.67483 2C7.91701 6.52366 5.837 11.004 3.94543 15.5079C3.39546 16.8175 2.78428 18.1239 2.33625 19.4486C2.26388 19.6626 1.99028 20.2898 2.00027 20.0714C2.02841 19.4561 2.49719 18.7252 2.83138 18.1709C3.59306 16.9075 4.53661 15.6819 5.66955 14.5254C6.37322 13.8072 7.64638 12.1802 9.39189 12.4048C11.8542 12.7215 14.4304 12.7663 16.5006 11.739C17.8765 11.0563 18.8291 10.0664 19.7101 9.15126C20.9852 7.82687 22.1536 6.4592 23.2468 5.07633C23.3888 4.8966 23.5257 4.71537 23.6623 4.53408C23.7622 4.40155 23.7229 4.13679 23.9629 4.13679C24.0284 4.13679 23.9866 4.2152 23.9895 4.2549C24.0193 4.67098 23.9723 5.2057 23.9364 5.581C23.702 8.03085 23.2381 10.4699 22.8135 12.9094C22.1119 16.9407 21.6223 20.9598 21.1336 25" stroke="#7B6D5B" stroke-width="3" stroke-linecap="round"/>
</svg>
