<svg width="22" height="25" viewBox="0 0 22 25" fill="none" xmlns="http://www.w3.org/2000/svg">
<path d="M2.91119 2C1.80418 5.72851 1.96778 9.58135 2.0813 13.4048C2.14226 15.4581 2.12203 17.6956 2.5119 19.7268C2.65475 20.4711 2.86145 22.2875 3.78023 22.7066C6.90745 24.1329 9.76641 20.0052 10.0749 17.9271C10.2403 16.8127 10.5856 15.1678 9.67562 14.2222C9.36723 13.9018 7.972 12.6572 7.35817 12.8049C7.02882 12.8841 7.56866 13.054 7.62437 13.062C9.03816 13.2641 10.4065 12.8241 11.6642 12.2973C12.798 11.8223 13.8773 11.2096 14.9212 10.6096C15.8525 10.0743 16.9085 9.49874 17.4735 8.6451C18.2081 7.53507 18.609 6.13236 19.1489 4.94019C19.2156 4.79312 19.8689 2.88338 19.9632 2.88338C20.1318 2.88338 19.6674 5.77301 19.65 5.86312C18.9951 9.25059 19.016 12.5135 19.1959 15.9362C19.2697 17.3397 19.3995 18.7501 19.3995 20.1554" stroke="#7B6D5B" stroke-width="3" stroke-linecap="round"/>
</svg>
