<svg width="20" height="13" viewBox="0 0 20 13" fill="none" xmlns="http://www.w3.org/2000/svg">
<path d="M2 10.907C2.16364 10.7585 2.60525 10.7498 2.85367 10.6797C3.81015 10.41 4.58715 9.8257 5.33784 9.3934C6.55586 8.69199 6.95866 7.98328 7.46347 7.03775C8.13882 5.77276 8.79976 4.34609 8.89763 3.0135C8.90623 2.89635 8.7032 1.96561 9.1708 2.00098C10.0231 2.06545 10.8428 2.242 11.7062 2.29544C12.8412 2.36568 13.9903 2.36655 15.1294 2.39876C15.8438 2.41896 17.2421 2.27871 17.9123 2.46591C18.307 2.57615 17.2447 4.68477 17.1782 4.92489C16.6179 6.947 16.0069 8.97268 16.7514 11" stroke="#7B6D5B" stroke-width="3" stroke-linecap="round"/>
</svg>
