<svg width="34" height="19" viewBox="0 0 34 19" fill="none" xmlns="http://www.w3.org/2000/svg">
<path d="M2.10631 2C1.83063 4.168 2.11368 6.14245 2.69477 8.30485C3.02703 9.54127 3.36646 10.7741 3.64938 12.015C3.77128 12.5496 3.84541 12.8803 4.51245 13.2491C5.109 13.5788 5.89386 14.1101 6.77475 14.0797C9.72994 13.9775 11.6914 12.1365 13.0909 10.7809C15.0359 8.89681 16.821 6.67217 18.0339 4.57099C18.1882 4.30375 18.2963 3.16141 18.4001 3.9935C18.7659 6.92578 18.4981 9.85996 20.1131 12.6874C20.8467 13.9716 21.92 15.3695 23.7877 16.2077C26.2922 17.3315 29.1542 16.9205 32 16.9513" stroke="#7B6D5B" stroke-width="3" stroke-linecap="round"/>
</svg>
