<svg width="41" height="18" viewBox="0 0 41 18" fill="none" xmlns="http://www.w3.org/2000/svg">
<path d="M16.6788 2.78076C16.0976 2.52437 15.2531 2.56381 14.6108 2.3989C12.3457 1.81734 10.2295 1.88998 7.97294 2.49759C6.29638 2.94903 4.6129 3.62695 3.42119 4.63659C2.14584 5.71708 1.72951 7.11085 2.16953 8.49836C2.64438 9.99571 4.24333 12.4509 6.8082 12.1048C7.64466 11.992 8.38971 11.676 9.06525 11.3046C10.4776 10.5281 11.633 9.53259 12.5421 8.42112C13.9736 6.67098 15.1133 4.69456 15.1932 2.62417C15.1975 2.51156 15.3635 2.61064 15.1932 2.50103C15.1093 2.44706 14.3187 2.79463 14.5042 2.37198C14.259 2.58698 14.3096 2.67464 14.2052 2.91595C13.7105 4.05875 13.5998 5.29284 13.6779 6.4838C13.8215 8.67676 14.5088 13.015 17.0628 14.3523C19.9977 15.889 24.5954 16.4324 27.8302 15.6338C30.3914 14.2638 34.1132 10.2429 34.1132 10.2429C34.1132 10.2429 36.8435 5.57694 39 4.24587" stroke="#7B6D5B" stroke-width="3" stroke-linecap="round"/>
</svg>
