<svg width="43" height="22" viewBox="0 0 43 22" fill="none" xmlns="http://www.w3.org/2000/svg">
<path d="M2 16.6246C3.08146 16.9902 6.34351 18.087 8.48877 18.087C12.5653 18.087 15.3771 16.3917 17.6812 14.4309C21.3723 11.2897 21.5754 8.11491 22.2117 4.29357C22.3977 3.17643 22.5478 3.4029 22.5478 2.27489C22.5478 1.59559 22.8144 2.30724 22.913 2.98327C23.173 4.76667 22.6895 10.9814 27.4163 10.5456C32.0761 10.1159 33.0559 5.52008 34.3189 3.19541C34.5492 2.77156 34.8261 2.27492 34.6511 2.72121C33.3773 5.97065 31.8177 9.2367 31.735 12.6296C31.6849 14.6872 31.9422 18.5743 35.1679 19.7427C36.9813 20.3995 39.2997 19.6476 41 19.1686" stroke="#7B6D5B" stroke-width="3" stroke-linecap="round"/>
</svg>
