<svg width="29" height="32" viewBox="0 0 29 32" fill="none" xmlns="http://www.w3.org/2000/svg">
<path d="M15.7755 2.78265C15.2301 2.52565 14.4376 2.56518 13.8348 2.39987C11.7091 1.8169 9.7231 1.88971 7.60539 2.4988C6.032 2.95133 4.45211 3.6309 3.33373 4.64298C2.13686 5.72609 1.74615 7.12324 2.15909 8.51411C2.60473 10.0151 4.10529 12.4762 6.51233 12.1293C7.29731 12.0162 7.99651 11.6994 8.63048 11.3271C9.95588 10.5488 11.0402 9.55084 11.8934 8.43669C13.2368 6.68231 14.3063 4.70109 14.3813 2.62569C14.3854 2.5128 14.5412 2.61212 14.3813 2.50224C14.3026 2.44814 13.5607 2.79655 13.7347 2.37288C13.5046 2.5884 13.5521 2.67627 13.4541 2.91817C12.9899 4.06374 12.886 5.30082 12.9592 6.49467C13.094 8.69295 14.2449 10.8779 16.2857 12.8956C17.8163 14.9134 9.65306 25.809 11.6939 28.2303C13.7347 30.6515 18.1224 30.248 19.3469 29.0373C21.3878 27.0196 24.449 19.7559 27 20.1594" stroke="#7B6D5B" stroke-width="3" stroke-linecap="round"/>
</svg>
