<svg width="31" height="25" viewBox="0 0 31 25" fill="none" xmlns="http://www.w3.org/2000/svg">
<path d="M2 21.7782C3.85787 22.2123 7.60328 21.8539 8.96701 21.344C11.2893 20.4757 13.1472 19.1732 14.5406 17.4366C15.9261 15.2291 16.8214 12.8773 17.7919 10.4901C18.2222 9.43152 18.4886 8.31931 18.7208 7.0168C19.1853 4.41189 19.1853 3.73823 19.4943 2.86993M19.4943 2.86993C20.1142 1.37272 19.7975 2.10346 19.4943 2.86993ZM19.4943 2.86993C18.5171 5.33959 17.8933 7.955 17.6873 10.5867C17.4406 13.7389 18.1892 16.2698 19.7169 19.1039C20.5151 20.5846 21.6448 22.325 23.4336 22.8982C25.5405 23.5735 27.7251 20.7088 29 19.6002" stroke="#7B6D5B" stroke-width="3" stroke-linecap="round"/>
</svg>
