<svg width="36" height="16" viewBox="0 0 36 16" fill="none" xmlns="http://www.w3.org/2000/svg">
<path d="M2 12.2629C3.32121 12.273 4.11385 11.9208 5.02062 11.3329C6.56884 10.3292 8.03021 9.20334 9.30682 8.06048C10.3116 7.16102 11.0401 6.16298 11.845 5.19162C12.5007 4.4003 12.88 3.60572 13.4252 2.79651C13.5263 2.6465 13.9161 1.95301 14.2713 2.00252C14.5789 2.04542 14.8951 2.38673 15.1453 2.49822C15.9774 2.869 17.2223 3.09688 18.2079 3.24395C21.16 3.68443 24.2779 3.47824 27.2557 3.30097C28.5923 3.22141 29.9222 3.123 31.2553 3.02461C31.9935 2.97012 32.9941 2.83925 33.7305 2.9632C34.5845 3.10694 33.1421 6.24796 33.0732 6.48568C32.3455 8.99667 31.7533 11.4583 32.3321 14" stroke="#7B6D5B" stroke-width="3" stroke-linecap="round"/>
</svg>
