<svg width="39" height="25" viewBox="0 0 39 25" fill="none" xmlns="http://www.w3.org/2000/svg">
<path d="M2.12545 19.3858C2.12545 20.5703 1.37587 22.3359 3.54129 22.3359C7.65613 22.3359 10.7911 19.0735 13.1169 16.9274C16.8426 13.4896 17.3928 9.99227 18.0351 5.80997C18.2229 4.5873 18.5567 3.38423 18.5567 2.14968C18.5567 1.40621 18.6435 3.63602 18.743 4.3759C19.0055 6.32775 18.5174 13.1295 23.2886 12.6525C27.9922 12.1823 28.9813 7.15234 30.2561 4.60808C30.4885 4.1442 31.2607 2.23794 30.5914 4.08909C29.3056 7.64546 27.7314 11.22 27.648 14.9334C27.5973 17.1854 27.8571 21.4396 31.1131 22.7183C32.9435 23.4373 35.2838 22.6144 37 22.0901" stroke="#7B6D5B" stroke-width="3" stroke-linecap="round"/>
</svg>
